#!OML:ASF X:\für Bonn\!DataBase\2005_08_10_Bjorn_Final\c3d\bjorn.ASF
:FULLY-SPECIFIED
:DEGREES
49
root 4.68986 21.8307 10.7255 6.23929 -10.5137 358.727
lowerback -13.5032 1.90445 3.75198
upperback 2.9278 1.8447 0.424747
thorax 10.9105 1.10392 -1.23913
lowerneck -4.17648 0.0319546 3.48558
upperneck 11.7269 0.223392 -4.20634
head 4.19202 0.0345971 -1.85028
rclavicle -1.85864e-014 3.57812e-015
rhumerus -41.334 -29.1359 -55.8059
rradius 110.27
rwrist -22.506
rhand -12.0126 13.2833
rfingers 7.12502
rthumb 14.0448 -16.2221
lclavicle -1.85864e-014 3.57812e-015
lhumerus -33.9498 12.9563 61.3945
lradius 104.551
lwrist 32.1192
lhand -34.7584 -15.6608
lfingers 7.12502
lthumb -7.91163 14.1712
rfemur -6.2472 2.75573 13.7449
rtibia 34.9284
rfoot 24.9693 8.23016
rtoes -16.4952
lfemur -8.62168 -1.97538 -16.3082
ltibia 29.9206
lfoot 27.674 -5.77769
ltoes -16.4244
50
root 4.69834 22.0569 10.8988 6.15397 -10.4786 358.799
lowerback -13.3255 1.82864 3.60089
upperback 2.93641 1.78561 0.350121
thorax 10.8087 1.06836 -1.25325
lowerneck -3.97377 0.0279739 3.71822
upperneck 11.7798 0.202334 -4.18068
head 4.17342 0.0373884 -1.88168
rclavicle -3.50606e-014 -2.62396e-014
rhumerus -40.1168 -28.6108 -56.6713
rradius 111.028
rwrist -22.4396
rhand -11.9448 12.7936
rfingers 7.12502
rthumb 14.1102 -16.7074
lclavicle -3.50606e-014 -2.62396e-014
lhumerus -32.8837 12.1835 61.8511
lradius 105.277
lwrist 32.5913
lhand -34.3167 -15.2034
lfingers 7.12502
lthumb -7.48525 14.6441
rfemur -6.89824 2.10611 13.9057
rtibia 35.8663
rfoot 24.2381 8.69793
rtoes -18.1367
lfemur -8.61142 -1.41413 -16.2938
ltibia 29.9336
lfoot 29.3114 -5.74804
ltoes -13.4844
51
root 4.70821 22.2646 11.065 5.83668 -10.4238 358.917
lowerback -12.7698 1.73383 3.41729
upperback 2.98412 1.72183 0.268413
thorax 10.5269 1.02787 -1.26598
lowerneck -3.74034 0.026227 3.92547
upperneck 11.4258 0.156754 -3.9876
head 4.474 0.0516517 -2.054
rclavicle -1.74931e-014 -1.41137e-014
rhumerus -39.1241 -27.897 -57.5695
rradius 111.515
rwrist -22.124
rhand -12.1626 12.8926
rfingers 7.12502
rthumb 13.9003 -16.6228
lclavicle -1.74931e-014 -1.41137e-014
lhumerus -32.0364 11.3397 62.3652
lradius 105.73
lwrist 32.4481
lhand -33.9306 -14.3495
lfingers 7.12502
lthumb -7.1126 15.5109
rfemur -7.32267 1.45963 14.0226
rtibia 36.7867
rfoot 23.5119 9.19461
rtoes -18.7321
lfemur -8.38769 -0.925728 -16.3453
ltibia 30.078
lfoot 29.9922 -5.73905
ltoes -11.3387
52
root 4.71572 22.461 11.2272 5.39245 -10.3498 358.985
lowerback -11.9445 1.6193 3.21236
upperback 3.05423 1.63635 0.24812
thorax 10.1078 0.972538 -1.2096
lowerneck -3.38431 0.00610296 4.05073
upperneck 11.2724 0.127575 -3.97909
head 4.34644 0.0455679 -2.06894
rclavicle 3.3048e-015 2.8625e-014
rhumerus -38.2668 -27.034 -58.4895
rradius 111.713
rwrist -21.5866
rhand -12.4507 13.4781
rfingers 7.12502
rthumb 13.6226 -16.0562
lclavicle 3.3048e-015 2.8625e-014
lhumerus -31.3529 10.5096 63.0035
lradius 106.074
lwrist 32.222
lhand -33.7307 -13.258
lfingers 7.12502
lthumb -6.91964 16.609
rfemur -7.62991 0.998208 14.2404
rtibia 37.6493
rfoot 22.8581 9.46505
rtoes -19.1951
lfemur -8.03949 -0.509556 -16.3471
ltibia 30.3444
lfoot 29.9572 -5.74118
ltoes -10.0785
53
root 4.72327 22.6436 11.3835 4.93973 -10.2195 359.129
lowerback -11.0979 1.47798 2.9155
upperback 3.21638 1.52443 0.221089
thorax 9.77445 0.901227 -1.11085
lowerneck -3.25018 -0.0103432 4.12356
upperneck 11.0842 0.095283 -3.92764
head 4.25023 0.0356439 -2.06135
rclavicle -2.79541e-014 -1.35174e-014
rhumerus -37.3497 -26.1313 -59.5322
rradius 111.734
rwrist -20.9062
rhand -12.9683 14.4579
rfingers 7.12502
rthumb 13.1237 -15.1091
lclavicle -2.79541e-014 -1.35174e-014
lhumerus -30.5803 9.76458 63.7918
lradius 106.013
lwrist 31.3838
lhand -33.6079 -12.3716
lfingers 7.12502
lthumb -6.80107 17.4992
rfemur -7.97034 0.599824 14.3803
rtibia 38.4244
rfoot 22.5174 9.40976
rtoes -18.8024
lfemur -7.78247 -0.131386 -16.4151
ltibia 30.7292
lfoot 29.7187 -5.67246
ltoes -8.56078
54
root 4.73235 22.8126 11.5371 4.61466 -10.0815 359.226
lowerback -10.325 1.35189 2.71469
upperback 3.38123 1.41155 0.188999
thorax 9.49099 0.835785 -1.06771
lowerneck -3.19226 -0.0369258 4.06423
upperneck 10.9113 0.0456071 -3.76803
head 4.17206 0.0157533 -1.99419
rclavicle -1.80149e-014 -1.39149e-015
rhumerus -36.4665 -25.2756 -60.6741
rradius 111.81
rwrist -20.1257
rhand -13.1593 14.34
rfingers 7.12502
rthumb 12.9396 -15.2388
lclavicle -1.80149e-014 -1.39149e-015
lhumerus -29.7853 8.9916 64.6449
lradius 105.631
lwrist 30.8175
lhand -33.5089 -12.264
lfingers 7.12502
lthumb -6.70553 17.6098
rfemur -8.4353 0.245007 14.5702
rtibia 39.0803
rfoot 22.3956 9.1609
rtoes -17.9101
lfemur -7.73234 0.217957 -16.4352
ltibia 31.1949
lfoot 29.2077 -5.62434
ltoes -7.71903
55
root 4.74343 22.9706 11.6874 4.34436 -9.94204 359.393
lowerback -9.56201 1.22455 2.44064
upperback 3.53138 1.30365 0.147856
thorax 9.19586 0.768424 -0.989869
lowerneck -3.12491 -0.0655816 3.9601
upperneck 10.7965 -0.0050704 -3.57858
head 4.11257 -0.00503024 -1.90976
rclavicle -2.17669e-014 6.16232e-015
rhumerus -35.6986 -24.3441 -61.7985
rradius 111.691
rwrist -19.3318
rhand -13.1194 13.5397
rfingers 7.12502
rthumb 12.9781 -16.0366
lclavicle -2.17669e-014 6.16232e-015
lhumerus -29.113 8.17663 65.5293
lradius 104.947
lwrist 30.5125
lhand -33.3741 -12.8279
lfingers 7.12502
lthumb -6.57533 17.05
rfemur -8.96194 -0.0858414 14.6908
rtibia 39.5972
rfoot 22.3374 8.92544
rtoes -17.1187
lfemur -7.82484 0.537126 -16.5259
ltibia 31.7073
lfoot 28.565 -5.79775
ltoes -8.22163
56
root 4.75714 23.1213 11.8374 4.06582 -9.81132 359.531
lowerback -8.75879 1.1242 2.24311
upperback 3.6788 1.21869 0.105082
thorax 8.87775 0.716529 -0.951479
lowerneck -2.86511 -0.10984 3.81923
upperneck 10.5599 -0.0710487 -3.37151
head 3.97101 -0.0332579 -1.80983
rclavicle 1.52567e-014 2.01766e-014
rhumerus -35.1043 -23.483 -62.8088
rradius 111.459
rwrist -18.5709
rhand -12.9341 12.7876
rfingers 7.12502
rthumb 13.1567 -16.7773
lclavicle 1.52567e-014 2.01766e-014
lhumerus -28.483 7.36678 66.3964
lradius 104.097
lwrist 30.0393
lhand -33.1796 -12.8718
lfingers 7.12502
lthumb -6.38759 17.0119
rfemur -9.48554 -0.371161 14.8309
rtibia 39.9632
rfoot 22.1005 8.78399
rtoes -17.1977
lfemur -7.96114 0.745333 -16.6024
ltibia 32.2135
lfoot 27.8271 -5.88472
ltoes -9.28297
57
root 4.7726 23.2639 11.9872 3.80221 -9.68332 359.662
lowerback -7.96271 1.02741 2.03804
upperback 3.84788 1.13111 0.111365
thorax 8.58641 0.661657 -0.85503
lowerneck -2.56656 -0.153514 3.57841
upperneck 10.3315 -0.123322 -3.21641
head 3.82627 -0.0607573 -1.70929
rclavicle -9.69075e-016 2.0276e-014
rhumerus -34.5826 -22.6314 -63.6808
rradius 111.157
rwrist -17.9052
rhand -12.5363 12.1952
rfingers 7.12502
rthumb 13.5401 -17.3446
lclavicle -9.69075e-016 2.0276e-014
lhumerus -27.9507 6.6497 67.3362
lradius 103.174
lwrist 29.5292
lhand -32.9066 -12.6105
lfingers 7.12502
lthumb -6.124 17.2809
rfemur -10.0027 -0.654494 14.9559
rtibia 40.176
rfoot 21.7874 8.76393
rtoes -17.0383
lfemur -8.15753 0.801826 -16.6871
ltibia 32.6576
lfoot 27.1277 -5.66237
ltoes -9.32493
58
root 4.78805 23.3989 12.1349 3.53891 -9.56376 359.796
lowerback -7.17768 0.942409 1.85588
upperback 4.0862 1.05467 0.0869536
thorax 8.37857 0.615485 -0.799767
lowerneck -2.33168 -0.196168 3.40557
upperneck 10.0264 -0.179073 -3.09406
head 3.66881 -0.0892381 -1.6324
rclavicle -1.08586e-014 -4.17448e-015
rhumerus -34.0777 -21.7676 -64.6522
rradius 110.539
rwrist -17.0355
rhand -12.766 12.1377
rfingers 7.12502
rthumb 13.3188 -17.4167
lclavicle -1.08586e-014 -4.17448e-015
lhumerus -27.3582 6.0033 68.1949
lradius 102.199
lwrist 29.0749
lhand -32.4658 -12.0772
lfingers 7.12502
lthumb -5.69842 17.8262
rfemur -10.4949 -0.80872 15.074
rtibia 40.2466
rfoot 21.4871 8.66926
rtoes -16.0102
lfemur -8.40719 0.797285 -16.7667
ltibia 33.0175
lfoot 26.584 -5.36066
ltoes -8.50635
